<mxfile host="app.diagrams.net" modified="2023-06-07T12:09:51.213Z" agent="Mozilla/5.0 (X11; Linux x86_64) AppleWebKit/537.36 (KHTML, like Gecko) Chrome/113.0.0.0 Safari/537.36" etag="lza17jdDJcnBesa3jnqh" version="21.3.7" type="github">
  <diagram name="Page-1" id="2tLb0r0LkJNJJE81Z-Nl">
    <mxGraphModel dx="1730" dy="523" grid="1" gridSize="10" guides="1" tooltips="1" connect="1" arrows="1" fold="1" page="1" pageScale="1" pageWidth="850" pageHeight="1100" math="0" shadow="0">
      <root>
        <mxCell id="0" />
        <mxCell id="1" parent="0" />
        <mxCell id="TizN6uBxQhdyMVuGbTVz-29" style="edgeStyle=orthogonalEdgeStyle;rounded=0;orthogonalLoop=1;jettySize=auto;html=1;exitX=0.5;exitY=0.5;exitDx=0;exitDy=0;exitPerimeter=0;entryX=0;entryY=0.5;entryDx=0;entryDy=0;" parent="1" source="TizN6uBxQhdyMVuGbTVz-6" target="TizN6uBxQhdyMVuGbTVz-14" edge="1">
          <mxGeometry relative="1" as="geometry">
            <mxPoint x="220" y="250" as="targetPoint" />
            <Array as="points">
              <mxPoint x="-45" y="340" />
              <mxPoint x="220" y="340" />
              <mxPoint x="220" y="300" />
            </Array>
          </mxGeometry>
        </mxCell>
        <mxCell id="TizN6uBxQhdyMVuGbTVz-30" value="association" style="edgeStyle=orthogonalEdgeStyle;rounded=0;orthogonalLoop=1;jettySize=auto;html=1;exitX=1;exitY=0.3333333333333333;exitDx=0;exitDy=0;exitPerimeter=0;entryX=0;entryY=0.5;entryDx=0;entryDy=0;" parent="1" source="TizN6uBxQhdyMVuGbTVz-6" target="TizN6uBxQhdyMVuGbTVz-13" edge="1">
          <mxGeometry relative="1" as="geometry" />
        </mxCell>
        <mxCell id="TizN6uBxQhdyMVuGbTVz-31" style="edgeStyle=orthogonalEdgeStyle;rounded=0;orthogonalLoop=1;jettySize=auto;html=1;exitX=1;exitY=1;exitDx=0;exitDy=0;exitPerimeter=0;entryX=0;entryY=0.5;entryDx=0;entryDy=0;" parent="1" source="TizN6uBxQhdyMVuGbTVz-6" target="TizN6uBxQhdyMVuGbTVz-15" edge="1">
          <mxGeometry relative="1" as="geometry">
            <Array as="points">
              <mxPoint x="-30" y="370" />
              <mxPoint x="-30" y="385" />
              <mxPoint x="125" y="385" />
              <mxPoint x="125" y="420" />
            </Array>
          </mxGeometry>
        </mxCell>
        <mxCell id="TizN6uBxQhdyMVuGbTVz-6" value="member" style="shape=umlActor;verticalLabelPosition=bottom;verticalAlign=top;html=1;outlineConnect=0;" parent="1" vertex="1">
          <mxGeometry x="-70" y="310" width="30" height="60" as="geometry" />
        </mxCell>
        <mxCell id="TizN6uBxQhdyMVuGbTVz-10" value="Library System" style="swimlane;startSize=0;" parent="1" vertex="1">
          <mxGeometry x="140" y="200" width="600" height="420" as="geometry">
            <mxRectangle x="400" y="280" width="50" height="40" as="alternateBounds" />
          </mxGeometry>
        </mxCell>
        <mxCell id="Zdvz6Wl3jkffZNDOwEsg-5" style="edgeStyle=orthogonalEdgeStyle;rounded=0;orthogonalLoop=1;jettySize=auto;html=1;entryX=0;entryY=0.5;entryDx=0;entryDy=0;dashed=1;" parent="TizN6uBxQhdyMVuGbTVz-10" source="TizN6uBxQhdyMVuGbTVz-13" target="Zdvz6Wl3jkffZNDOwEsg-3" edge="1">
          <mxGeometry relative="1" as="geometry" />
        </mxCell>
        <mxCell id="Zdvz6Wl3jkffZNDOwEsg-6" value="&amp;lt;&amp;lt;includes&amp;gt;&amp;gt;" style="edgeLabel;html=1;align=center;verticalAlign=middle;resizable=0;points=[];" parent="Zdvz6Wl3jkffZNDOwEsg-5" vertex="1" connectable="0">
          <mxGeometry x="-0.3993" y="-1" relative="1" as="geometry">
            <mxPoint as="offset" />
          </mxGeometry>
        </mxCell>
        <mxCell id="TizN6uBxQhdyMVuGbTVz-13" value="Login" style="ellipse;whiteSpace=wrap;html=1;" parent="TizN6uBxQhdyMVuGbTVz-10" vertex="1">
          <mxGeometry x="30" y="30" width="120" height="40" as="geometry" />
        </mxCell>
        <mxCell id="TizN6uBxQhdyMVuGbTVz-14" value="Reserve a Book" style="ellipse;whiteSpace=wrap;html=1;" parent="TizN6uBxQhdyMVuGbTVz-10" vertex="1">
          <mxGeometry x="90" y="150" width="120" height="40" as="geometry" />
        </mxCell>
        <mxCell id="TizN6uBxQhdyMVuGbTVz-15" value="Return a Book" style="ellipse;whiteSpace=wrap;html=1;" parent="TizN6uBxQhdyMVuGbTVz-10" vertex="1">
          <mxGeometry x="80" y="260" width="120" height="40" as="geometry" />
        </mxCell>
        <mxCell id="TizN6uBxQhdyMVuGbTVz-28" value="&amp;lt;&amp;lt;extends&amp;gt;&amp;gt;" style="edgeStyle=orthogonalEdgeStyle;rounded=0;orthogonalLoop=1;jettySize=auto;html=1;dashed=1;" parent="TizN6uBxQhdyMVuGbTVz-10" source="TizN6uBxQhdyMVuGbTVz-16" target="TizN6uBxQhdyMVuGbTVz-15" edge="1">
          <mxGeometry relative="1" as="geometry" />
        </mxCell>
        <mxCell id="TizN6uBxQhdyMVuGbTVz-16" value="generate fine list" style="ellipse;whiteSpace=wrap;html=1;" parent="TizN6uBxQhdyMVuGbTVz-10" vertex="1">
          <mxGeometry x="220" y="210" width="120" height="40" as="geometry" />
        </mxCell>
        <mxCell id="TizN6uBxQhdyMVuGbTVz-32" value="Create Record" style="ellipse;whiteSpace=wrap;html=1;" parent="TizN6uBxQhdyMVuGbTVz-10" vertex="1">
          <mxGeometry x="360" y="30" width="120" height="40" as="geometry" />
        </mxCell>
        <mxCell id="TizN6uBxQhdyMVuGbTVz-33" value="Update Record" style="ellipse;whiteSpace=wrap;html=1;" parent="TizN6uBxQhdyMVuGbTVz-10" vertex="1">
          <mxGeometry x="360" y="110" width="120" height="40" as="geometry" />
        </mxCell>
        <mxCell id="TizN6uBxQhdyMVuGbTVz-34" value="Delete Record" style="ellipse;whiteSpace=wrap;html=1;" parent="TizN6uBxQhdyMVuGbTVz-10" vertex="1">
          <mxGeometry x="380" y="270" width="120" height="40" as="geometry" />
        </mxCell>
        <mxCell id="TizN6uBxQhdyMVuGbTVz-39" value="Transact" style="ellipse;whiteSpace=wrap;html=1;" parent="TizN6uBxQhdyMVuGbTVz-10" vertex="1">
          <mxGeometry x="390" y="340" width="120" height="40" as="geometry" />
        </mxCell>
        <mxCell id="Zdvz6Wl3jkffZNDOwEsg-3" value="Verify A/C" style="ellipse;whiteSpace=wrap;html=1;" parent="TizN6uBxQhdyMVuGbTVz-10" vertex="1">
          <mxGeometry x="250" y="10" width="90" height="30" as="geometry" />
        </mxCell>
        <mxCell id="Zdvz6Wl3jkffZNDOwEsg-8" style="edgeStyle=orthogonalEdgeStyle;rounded=0;orthogonalLoop=1;jettySize=auto;html=1;entryX=0.5;entryY=1;entryDx=0;entryDy=0;dashed=1;" parent="TizN6uBxQhdyMVuGbTVz-10" source="Zdvz6Wl3jkffZNDOwEsg-4" target="TizN6uBxQhdyMVuGbTVz-13" edge="1">
          <mxGeometry relative="1" as="geometry" />
        </mxCell>
        <mxCell id="Zdvz6Wl3jkffZNDOwEsg-9" value="&amp;lt;&amp;lt;extends&amp;gt;&amp;gt;" style="edgeLabel;html=1;align=center;verticalAlign=middle;resizable=0;points=[];" parent="Zdvz6Wl3jkffZNDOwEsg-8" vertex="1" connectable="0">
          <mxGeometry x="-0.1104" y="-1" relative="1" as="geometry">
            <mxPoint as="offset" />
          </mxGeometry>
        </mxCell>
        <mxCell id="Zdvz6Wl3jkffZNDOwEsg-4" value="&lt;font style=&quot;font-size: 11px;&quot;&gt;Display Error Message&lt;/font&gt;" style="ellipse;whiteSpace=wrap;html=1;" parent="TizN6uBxQhdyMVuGbTVz-10" vertex="1">
          <mxGeometry x="240" y="70" width="90" height="30" as="geometry" />
        </mxCell>
        <mxCell id="Zdvz6Wl3jkffZNDOwEsg-24" value="&lt;font style=&quot;font-size: 11px;&quot;&gt;Notify&lt;/font&gt;" style="ellipse;whiteSpace=wrap;html=1;" parent="TizN6uBxQhdyMVuGbTVz-10" vertex="1">
          <mxGeometry x="285" y="130" width="90" height="30" as="geometry" />
        </mxCell>
        <mxCell id="Zdvz6Wl3jkffZNDOwEsg-25" value="&amp;lt;&amp;lt;extends&amp;gt;&amp;gt;" style="html=1;verticalAlign=bottom;endArrow=open;dashed=1;endSize=8;edgeStyle=elbowEdgeStyle;elbow=vertical;curved=0;rounded=0;exitX=0;exitY=0.5;exitDx=0;exitDy=0;" parent="TizN6uBxQhdyMVuGbTVz-10" edge="1" source="Zdvz6Wl3jkffZNDOwEsg-24">
          <mxGeometry relative="1" as="geometry">
            <mxPoint x="290" y="170" as="sourcePoint" />
            <mxPoint x="210" y="170" as="targetPoint" />
          </mxGeometry>
        </mxCell>
        <mxCell id="MgM1vbpg7RgVdD7iTSEc-7" value="lend&lt;br&gt;" style="ellipse;whiteSpace=wrap;html=1;" vertex="1" parent="TizN6uBxQhdyMVuGbTVz-10">
          <mxGeometry x="370" y="200" width="120" height="40" as="geometry" />
        </mxCell>
        <mxCell id="TizN6uBxQhdyMVuGbTVz-35" style="edgeStyle=orthogonalEdgeStyle;rounded=0;orthogonalLoop=1;jettySize=auto;html=1;entryX=1;entryY=0.5;entryDx=0;entryDy=0;" parent="1" source="TizN6uBxQhdyMVuGbTVz-11" target="TizN6uBxQhdyMVuGbTVz-32" edge="1">
          <mxGeometry relative="1" as="geometry">
            <Array as="points">
              <mxPoint x="735" y="320" />
              <mxPoint x="735" y="250" />
            </Array>
          </mxGeometry>
        </mxCell>
        <mxCell id="Zdvz6Wl3jkffZNDOwEsg-10" value="association" style="edgeLabel;html=1;align=center;verticalAlign=middle;resizable=0;points=[];" parent="TizN6uBxQhdyMVuGbTVz-35" vertex="1" connectable="0">
          <mxGeometry x="0.5285" y="-3" relative="1" as="geometry">
            <mxPoint as="offset" />
          </mxGeometry>
        </mxCell>
        <mxCell id="TizN6uBxQhdyMVuGbTVz-36" style="edgeStyle=orthogonalEdgeStyle;rounded=0;orthogonalLoop=1;jettySize=auto;html=1;entryX=1;entryY=0.5;entryDx=0;entryDy=0;" parent="1" source="TizN6uBxQhdyMVuGbTVz-11" target="TizN6uBxQhdyMVuGbTVz-33" edge="1">
          <mxGeometry relative="1" as="geometry">
            <Array as="points">
              <mxPoint x="730" y="330" />
              <mxPoint x="730" y="370" />
              <mxPoint x="640" y="370" />
              <mxPoint x="640" y="330" />
            </Array>
          </mxGeometry>
        </mxCell>
        <mxCell id="TizN6uBxQhdyMVuGbTVz-37" style="edgeStyle=orthogonalEdgeStyle;rounded=0;orthogonalLoop=1;jettySize=auto;html=1;entryX=1;entryY=0.5;entryDx=0;entryDy=0;" parent="1" source="TizN6uBxQhdyMVuGbTVz-11" target="TizN6uBxQhdyMVuGbTVz-34" edge="1">
          <mxGeometry relative="1" as="geometry">
            <Array as="points">
              <mxPoint x="830" y="370" />
              <mxPoint x="830" y="490" />
            </Array>
          </mxGeometry>
        </mxCell>
        <mxCell id="MgM1vbpg7RgVdD7iTSEc-4" style="edgeStyle=orthogonalEdgeStyle;rounded=0;orthogonalLoop=1;jettySize=auto;html=1;entryX=1;entryY=0.5;entryDx=0;entryDy=0;" edge="1" parent="1" source="TizN6uBxQhdyMVuGbTVz-11" target="TizN6uBxQhdyMVuGbTVz-15">
          <mxGeometry relative="1" as="geometry">
            <Array as="points">
              <mxPoint x="810" y="360" />
              <mxPoint x="810" y="460" />
              <mxPoint x="340" y="460" />
            </Array>
          </mxGeometry>
        </mxCell>
        <mxCell id="MgM1vbpg7RgVdD7iTSEc-5" style="edgeStyle=orthogonalEdgeStyle;rounded=0;orthogonalLoop=1;jettySize=auto;html=1;entryX=1;entryY=1;entryDx=0;entryDy=0;" edge="1" parent="1" source="TizN6uBxQhdyMVuGbTVz-11" target="TizN6uBxQhdyMVuGbTVz-14">
          <mxGeometry relative="1" as="geometry">
            <Array as="points">
              <mxPoint x="750" y="340" />
              <mxPoint x="750" y="384" />
            </Array>
          </mxGeometry>
        </mxCell>
        <mxCell id="MgM1vbpg7RgVdD7iTSEc-8" style="edgeStyle=orthogonalEdgeStyle;rounded=0;orthogonalLoop=1;jettySize=auto;html=1;entryX=1;entryY=0.5;entryDx=0;entryDy=0;" edge="1" parent="1" source="TizN6uBxQhdyMVuGbTVz-11" target="MgM1vbpg7RgVdD7iTSEc-7">
          <mxGeometry relative="1" as="geometry">
            <Array as="points">
              <mxPoint x="775" y="350" />
              <mxPoint x="775" y="420" />
            </Array>
          </mxGeometry>
        </mxCell>
        <mxCell id="TizN6uBxQhdyMVuGbTVz-11" value="Library" style="whiteSpace=wrap;html=1;aspect=fixed;" parent="1" vertex="1">
          <mxGeometry x="920" y="320" width="50" height="50" as="geometry" />
        </mxCell>
        <mxCell id="Zdvz6Wl3jkffZNDOwEsg-1" style="edgeStyle=orthogonalEdgeStyle;rounded=0;orthogonalLoop=1;jettySize=auto;html=1;entryX=1;entryY=0.5;entryDx=0;entryDy=0;" parent="1" source="TizN6uBxQhdyMVuGbTVz-38" target="TizN6uBxQhdyMVuGbTVz-39" edge="1">
          <mxGeometry relative="1" as="geometry" />
        </mxCell>
        <mxCell id="TizN6uBxQhdyMVuGbTVz-38" value="Library Database" style="whiteSpace=wrap;html=1;aspect=fixed;" parent="1" vertex="1">
          <mxGeometry x="850" y="528" width="60" height="60" as="geometry" />
        </mxCell>
        <mxCell id="Zdvz6Wl3jkffZNDOwEsg-17" value="Generalization" style="endArrow=block;endSize=16;endFill=0;html=1;rounded=0;" parent="1" edge="1">
          <mxGeometry width="160" relative="1" as="geometry">
            <mxPoint x="-56" y="570" as="sourcePoint" />
            <mxPoint x="-55.53" y="390" as="targetPoint" />
            <Array as="points">
              <mxPoint x="-56" y="510" />
            </Array>
          </mxGeometry>
        </mxCell>
        <mxCell id="Zdvz6Wl3jkffZNDOwEsg-20" value="" style="endArrow=none;html=1;rounded=0;endFill=0;edgeStyle=elbowEdgeStyle;" parent="1" edge="1">
          <mxGeometry width="50" height="50" relative="1" as="geometry">
            <mxPoint y="570" as="sourcePoint" />
            <mxPoint x="-130" y="630" as="targetPoint" />
            <Array as="points">
              <mxPoint x="-130" y="590" />
            </Array>
          </mxGeometry>
        </mxCell>
        <mxCell id="Zdvz6Wl3jkffZNDOwEsg-21" value="" style="endArrow=none;html=1;rounded=0;" parent="1" target="Zdvz6Wl3jkffZNDOwEsg-23" edge="1">
          <mxGeometry width="50" height="50" relative="1" as="geometry">
            <mxPoint y="630" as="sourcePoint" />
            <mxPoint y="570" as="targetPoint" />
            <Array as="points">
              <mxPoint y="570" />
            </Array>
          </mxGeometry>
        </mxCell>
        <mxCell id="Zdvz6Wl3jkffZNDOwEsg-22" value="New Member" style="text;html=1;align=center;verticalAlign=middle;resizable=0;points=[];autosize=1;strokeColor=none;fillColor=none;" parent="1" vertex="1">
          <mxGeometry x="-185" y="628" width="90" height="30" as="geometry" />
        </mxCell>
        <mxCell id="Zdvz6Wl3jkffZNDOwEsg-23" value="Existing Member" style="text;html=1;strokeColor=none;fillColor=none;align=center;verticalAlign=middle;whiteSpace=wrap;rounded=0;" parent="1" vertex="1">
          <mxGeometry x="-30" y="628" width="60" height="30" as="geometry" />
        </mxCell>
      </root>
    </mxGraphModel>
  </diagram>
</mxfile>
